<?xml version="1.0" encoding="utf-8"?>
<!-- Generator: Adobe Illustrator 23.0.3, SVG Export Plug-In . SVG Version: 6.00 Build 0)  -->
<svg version="1.1" id="图层_1" xmlns="http://www.w3.org/2000/svg" xmlns:xlink="http://www.w3.org/1999/xlink" x="0px" y="0px"
	 viewBox="0 0 54.8 32" style="enable-background:new 0 0 54.8 32;" xml:space="preserve">
<style type="text/css">
	.st0{enable-background:new    ;}
</style>
<title>未标题-1</title>
<g class="st0">
	<path d="M10.7,1.5c0.6-0.2,1.4-0.3,2.2-0.3s1.4,0.1,1.7,0.3c0.2,0.1,0.5,0.2,0.8,0.3C15.7,2,16,2.1,16.2,2.3s0.3,0.3,0.2,0.5
		c-0.1,0.2-0.1,0.3-0.1,0.5c-0.1,0.5-0.4,1.5-1.1,3c-0.6,1.5-1.2,2.6-1.6,3.2c-0.3,0.5-0.3,0.8-0.1,0.8s0.4,0.1,0.6,0.3
		c0.2,0.2,0.5,0.4,0.7,0.4c0.1,0.1,0.1,0.2,0.1,0.3C14.8,11.4,14.2,12,13,13l-1.1,1l0.9,0.1c0.9,0.1,1.7,0.5,2.5,1.1
		c0.4,0.3,0.5,0.6,0.4,0.8c0,0.1-0.1,0.1-0.3,0c-0.2,0-0.3,0-0.4,0.1c-0.1,0.1-0.4,0.2-1,0.3c-0.6,0.1-1,0.2-1.2,0.4
		c-0.2,0.2-0.5,0.3-0.8,0.3c-0.6,0.1-0.9,0.3-0.9,0.5v0.1c0.1,0.1,1,0.1,2.4,0l0.9-0.1l0.5,0.5c0.2,0.2,0.4,0.4,0.4,0.4
		c0,0.1,0,0.2-0.1,0.3c-0.1,0.2-0.5,0.3-1.1,0.5s-1.2,0.5-1.8,0.9c-0.4,0.2-0.6,0.4-0.8,0.6s-0.3,0.4-0.4,0.7
		c-0.1,0.2-0.2,0.5-0.3,0.9c-0.1,0.3-0.1,0.6-0.1,0.8c0,0.2,0,0.3,0.1,0.3s0.4-0.2,0.9-0.5c1.3-1,2.3-1.6,2.8-2
		c0.5-0.3,1.3-1.1,2.4-2.4c0.2-0.2,0.4-0.3,0.6-0.3s0.5,0.1,0.8,0.3c0.3,0.2,0.5,0.4,0.5,0.5s-0.2,0.5-0.6,0.9
		c-0.4,0.5-0.6,0.8-0.6,0.9s-0.1,0.2-0.2,0.2s-0.3,0.3-0.4,0.8s-0.4,1-0.6,1.4c-0.2,0.5-0.3,0.7-0.2,0.8c0.1,0.1,0.4,0.2,1,0.5
		c1.4,0.5,2.6,1.3,3.6,2.2c0.5,0.5,0.9,1,1.3,1.5c0.4,0.6,0.6,1,0.6,1.2c0,0.1,0,0.2-0.1,0.2s-0.2-0.1-0.4-0.2
		c-0.3-0.1-0.7-0.2-1.2-0.2h-0.7l-0.8-0.9c-1-1-1.7-1.8-2.1-2.2s-0.9-0.7-1.2-0.9c-0.4-0.2-0.6-0.3-0.7-0.3c-0.1,0-0.2,0-0.2,0.1
		c-0.3,0.4-0.7,0.9-1.1,1.3c-0.4,0.5-0.6,0.7-0.7,0.7c-0.1,0-0.3,0.2-0.5,0.5s-0.7,0.8-1.3,1.5c-0.4,0.4-0.7,0.7-0.9,0.8
		c-0.2,0.1-0.4,0.2-0.7,0.2c-0.8,0.1-1.4-0.1-1.9-0.7c-0.3-0.3-0.4-0.7-0.4-1.1s0.1-0.9,0.2-1.5c0.1-0.5,0.1-0.9,0-1
		c0,0.4,0,0.2,0.1,0c0.1-0.1,0.2-0.6,0.4-1.5s0.2-1.4,0.2-1.8c0-0.1-0.2-0.2-0.5-0.1c-0.7,0.1-1.2,0-1.3-0.4
		c-0.2-0.3-0.3-0.4-0.3-0.2c0,0,0,0.1,0,0.2c0,0.2-0.3,0.7-0.8,1.6S4.9,24.9,4.9,25s-0.2,0.4-0.6,1.1c-0.4,0.6-0.8,1.1-1,1.4
		c-0.3,0.4-0.5,0.6-0.5,0.7S2.6,28.5,2.3,29c-0.4,0.5-0.7,0.7-0.8,0.7c-0.1,0-0.1-0.1,0-0.3c0-0.1,0-0.2,0-0.3c-0.1,0-0.1,0-0.3,0.1
		c-0.2,0-0.4,0-0.7-0.2c-0.5-0.2-0.6-0.7-0.4-1.6c0-0.3,0.1-0.5,0.1-0.7s0.3-0.9,0.9-2.1s0.9-1.8,1-1.8s0.1,0.1,0.1,0.2
		s-0.1,0.4-0.3,0.8c-0.2,0.6-0.3,0.9-0.3,0.9l0.3-0.4c0.2-0.3,0.4-0.5,0.5-0.8s0.6-0.9,1.3-2c0.8-1.1,1.4-2.1,2-3.1
		C6.6,17.1,7.4,16,8,15.3c0.4-0.4,0.5-0.6,0.5-0.7c0,0-0.3,0.1-0.9,0.4c-0.6,0.3-0.9,0.5-1.1,0.6c-0.1,0.1-0.7,0.4-1.8,0.9
		s-1.9,0.8-2.5,1C1.5,18,1.1,18.1,0.9,18s-0.3-0.3-0.3-0.8c0-0.4,0-0.7,0.1-0.9c0.1-0.2,0.3-0.4,0.7-0.6c0.3-0.2,0.8-0.5,1.6-1.1
		s1.4-1.2,2-1.7s1-0.8,1.2-1l0.3-0.2L5.9,11c-0.9-1-1.5-2.4-2-4.3C3.7,5.7,3.5,5,3.3,4.4C3.1,3.9,3,3.6,3.1,3.5s0.4,0,0.9,0.3
		S5,4.5,5.5,5l1.1,1l0.2-0.5c0.1-0.4,0.4-0.9,0.7-1.4C7.9,3.6,8.3,3,8.8,2.6c0.4-0.3,0.7-0.6,1-0.7C10,1.7,10.3,1.6,10.7,1.5z
		 M9,11.9c-0.1-0.2-0.2-0.3-0.3-0.3s-0.3,0-0.5,0.2C8,11.9,7.7,12,7.5,12c-0.3,0-0.7,0.2-1.1,0.6c-1.1,1-2,1.9-2.6,2.7
		c-0.1,0.2-0.1,0.2-0.1,0.2c0.1,0,0.4-0.2,1-0.5C5.2,14.8,6,14.4,7,13.8c1-0.6,1.6-1,1.9-1.2c0-0.2,0.1-0.3,0.1-0.4
		C9.1,12.1,9.1,12,9,11.9z M7.4,19.8c0-0.1-0.1-0.2-0.2-0.1c-0.1,0-0.1,0.1-0.2,0.2c0,0.3,0,0.4,0,0.4s0.1,0,0.2-0.1
		C7.3,20,7.4,19.9,7.4,19.8z M11.3,16.4c0-0.1-0.3-0.1-0.8-0.1s-0.7,0-0.8,0.1s-0.1,0.2,0,0.2c0,0,0.1,0,0.1-0.1
		c0.1-0.1,0.1-0.1,0.2-0.1c0.1,0,0.1,0,0.1,0.1s0,0.1-0.1,0.2c0,0.3-0.2,0.4-0.4,0.3c-0.2,0-0.4,0.1-0.8,0.5
		c-0.4,0.5-0.6,0.7-0.4,0.7c0,0,0.1-0.1,0.3-0.2c0.3-0.2,0.4-0.2,0.4-0.1s-0.2,0.3-0.5,0.7C8.3,19,8.1,19.1,8,19s-0.1-0.1-0.2,0
		s0,0.2,0.1,0.2S8,19.3,8,19.3s-0.1,0.1-0.2,0.2l-0.2,0.2c0,0,0.1-0.1,0.2-0.1c0.2-0.1,1.1-0.9,2.7-2.4
		C11.2,16.8,11.4,16.5,11.3,16.4z M9.4,19.2c0-0.2-0.3,0-0.8,0.6c-0.6,0.7-0.8,1-0.6,1c0.1,0,0.3,0,0.5-0.1s0.3-0.1,0.4-0.2
		C9,20.4,9.1,20.2,9.1,20C9.3,19.5,9.4,19.3,9.4,19.2z M11.5,3.5c-0.6-0.2-1.1-0.2-1.4-0.1C9.8,3.5,9.5,3.7,9.2,4.1S8.7,5,8.4,5.8
		C8.2,6.5,8.1,7.1,8.1,7.5c0,0.3,0,0.6,0.1,0.8c0,0.2,0.1,0.4,0.2,0.6c0,0.1,0.1,0.2,0.1,0.2C8.7,9,8.8,9,8.9,9.1
		C9,9.2,9.2,9.2,9.4,9.2C9.6,9.1,9.7,9,9.7,8.8c0.1-0.2,0-0.4-0.3-0.7C9.2,7.9,9.1,7.7,9.1,7.6S9,7.4,8.8,7C8.6,6.7,8.5,6.5,8.5,6.4
		s0.1-0.1,0.2-0.1c0.1,0,0.4,0.1,0.6,0.1c0.3,0.1,0.6,0.2,0.8,0.3l1,0.4l0.3-0.5c0.2-0.3,0.3-0.7,0.4-1c0.1-0.4,0.2-0.7,0.4-1.1
		c0.1-0.4,0.2-0.6,0.1-0.7C12.3,3.7,12,3.6,11.5,3.5z M13.6,24.3c-0.1,0-0.2,0-0.3-0.1s-0.5,0-1.2,0.3c-0.6,0.3-1,0.5-1.3,0.7
		c-0.2,0.2-0.3,0.4-0.3,0.7c0,0.3-0.1,0.7-0.2,1.2c-0.1,0.5-0.1,0.8-0.1,0.8c0.1,0.1,0.5,0,1-0.5c0.5-0.4,1.2-1.1,1.9-1.9
		c0.6-0.7,0.9-1.1,0.9-1.1s-0.1-0.1-0.2-0.1C13.8,24.3,13.7,24.3,13.6,24.3z M14.7,23.8c0-0.1-0.2-0.1-0.5,0c-0.1,0-0.2,0.1-0.2,0.1
		s0.1,0.1,0.2,0.1c0.1,0,0.2,0,0.3,0S14.7,23.9,14.7,23.8z"/>
	<path d="M47.1,0.2c0.1-0.2,0.4-0.2,1,0c0.5,0.3,1,0.6,1.5,1.2c0.6,0.6,0.6,1.1,0,1.5c-0.2,0.2-0.7,0.6-1.3,1.2s-0.9,1-0.9,1
		c0,0.1,0.1,0.3,0.4,0.6c0.4,0.4,0.5,0.7,0.4,0.9s-0.5,0.6-1.3,1.1c-1.4,1-2,1.6-1.7,1.7c0.1,0.1,0.5,0.2,1.1,0.4s0.9,0.3,1,0.4
		s0,0.4-0.3,0.7c-0.2,0.2-0.3,0.4-0.3,0.5s0,0.2,0.1,0.3c0.2,0.2,0.7,0.5,1.7,0.9c1,0.5,1.4,0.8,1.5,0.9c0.1,0.1,0,0.3-0.1,0.5
		s-0.3,0.4-0.5,0.4c-0.1,0.1-0.6,0.2-1.4,0.2c-1.4,0.1-2.1,0.2-2.2,0.4c-0.1,0.1,0.1,0.5,0.4,1.2c0.2,0.5,0.4,0.8,0.4,0.9
		c0.1,0.1,0.2,0.1,0.4,0.1c0.4-0.1,0.9,0,1.6,0.2c0.7,0.2,1.1,0.4,1.1,0.6c0,0.1-0.1,0.2-0.2,0.3c-0.2,0.1-0.4,0.2-0.7,0.2
		c-0.3,0.1-0.5,0.1-0.8,0.1c-0.5,0-0.8,0-0.8,0.1c-0.1,0.1,0.1,0.8,0.6,2s0.8,1.8,0.9,1.8c0.1,0,0.3-0.1,0.5-0.4s0.4-0.6,0.5-0.8
		c0.1-0.4,0.3-0.5,0.5-0.5c0.3,0,0.6,0.2,1.1,0.7c0.5,0.4,0.7,0.8,0.7,1s-0.3,0.6-1,1.3c-0.7,0.7-1,1.1-1,1.2c0,0.2,0.2,0.6,0.7,1.3
		c0.4,0.7,0.8,1.3,1.2,1.7c0.5,0.5,0.9,1,1.4,1.3c0.5,0.4,0.8,0.7,1.2,1.2s0.5,0.8,0.4,1c0,0.2-0.1,0.3-0.2,0.4
		c-0.1,0.1-0.3,0-0.6-0.1c-0.2-0.1-0.5-0.3-0.8-0.5c-0.5-0.4-1.1-1-1.9-1.8c-0.8-0.8-1.3-1.5-1.6-2c-0.4-0.6-0.6-1-0.8-1
		c-0.1-0.1-0.4,0-0.7,0.2c-0.4,0.2-0.8,0.5-1.1,0.7c-1,0.7-1.6,1-2,0.9C45,28.2,45,28,45.4,27.6s0.9-1,1.4-1.8s0.8-1.3,0.8-1.4
		s-0.1-0.5-0.4-1.2c-0.3-0.6-0.6-1.4-0.9-2.4c-0.3-0.9-0.6-1.4-0.7-1.4c-0.2,0-0.4,0-0.6,0.2c-0.2,0.2-0.3,0.4-0.3,0.7
		c0,0.2,0,0.4,0,0.5c0.1,0.1,0.3,0.2,0.6,0.5c0.3,0.2,0.5,0.3,0.6,0.4s0.1,0.2,0,0.2c-0.1,0.1-0.4,0.2-0.8,0.3
		c-0.4,0.1-0.7,0.2-0.8,0.2s-0.2,0.5-0.3,1.3s-0.2,1.4-0.2,1.6c0,0.3,0.2,0.6,0.5,0.9s0.5,0.5,0.5,0.7s-0.2,0.8-0.7,1.6
		c-0.5,0.9-0.9,1.4-1.2,1.7c-0.4,0.4-0.8,0.6-1.1,0.6c-0.4,0-0.6,0-0.7-0.1C41,30.6,41,30.4,41,29.9c0-0.3,0.1-0.6,0.1-0.8
		c0.1-0.2,0.2-0.5,0.5-0.8c0.4-0.6,0.6-0.9,0.5-1s-0.2,0-0.5,0.1c-0.3,0.2-0.6,0.4-0.9,0.7c-0.5,0.5-0.9,0.7-1.2,0.6
		c-0.1-0.1-0.2-0.4-0.1-0.9c0.1-0.5,0.2-0.9,0.4-1.1l0.3-0.4l-0.5,0.1c-0.3,0.1-0.5,0-0.6-0.2s-0.1-0.5,0-0.9s0.2-0.7,0.4-0.8
		c0.2-0.2,0.3-0.4,0.2-0.6c0-0.2-0.1-0.2-0.2-0.2c0,0.1-0.1,0.2-0.2,0.4c-0.5,0.8-1.1,1.6-1.8,2.2s-1.2,0.9-1.5,0.9
		c-0.1,0-0.2,0-0.2-0.1s-0.1-0.2-0.1-0.5c0-0.9,0.3-1.6,0.8-2c0.4-0.4,0.6-0.5,0.6-0.3c0,0.1-0.1,0.2-0.2,0.3
		c-0.1,0.1-0.1,0.2-0.2,0.4c0,0.2,0,0.3,0,0.4s0,0.2,0.1,0.2s0.5-0.3,1-1s0.8-1.1,0.7-1.2c0-0.1,0.2-0.4,0.6-0.7
		c0.5-0.4,0.7-0.6,0.7-0.6c0-0.1-0.6,0.2-1.7,0.8c-1.1,0.6-1.7,1-1.8,1s-0.3-0.1-0.5-0.2s-0.4-0.2-0.4-0.2s0,0.4,0.1,0.9
		s0.1,0.8,0,1s-0.3,0.4-0.8,0.6c-0.2,0.1-0.5,0.1-0.7,0c-0.4-0.3-0.8-1.1-1.1-2.6L32.5,22l-0.9,1.2c-0.9,1.3-1.5,2-1.8,2.2
		s-0.6,0.3-1,0.1c-0.7-0.2-1.2-0.8-1.6-1.6c-0.2-0.4-0.3-0.9-0.3-1.5s0-2.1,0.1-4.6c0-0.9,0-1.5,0.1-1.9c0-0.4,0.1-0.7,0.1-1
		s0.1-0.4,0.2-0.5s0.2-0.1,0.4-0.1c0.3,0,0.6,0,0.8,0.2c0.2,0.2,0.5,0.6,0.9,1.2l0.7,1.1h1.1c0.7,0,1.1,0,1.2-0.1
		c0.1-0.1,0.2-0.5,0.2-1.3c0-0.6,0-0.9,0-1s-0.1-0.2-0.3-0.2s-0.4,0.1-0.7,0.3c-0.2,0.2-0.6,0.3-1,0.3s-0.9-0.1-1.2-0.3
		c-0.9-0.5-1.4-0.8-1.4-1c0-0.1,0.9-0.7,2.7-1.9c0.4-0.3,0.8-0.5,1-0.6c0.2-0.1,0.7-0.1,1.3,0c0.7,0.1,1.2,0.3,1.7,0.4
		c0.4,0.2,0.7,0.2,0.8,0.1c0.1-0.1,0.2-0.5,0.4-1.1s0.2-1,0.2-1.2s0.1-0.3,0.2-0.3c0.1,0,0.2,0.1,0.2,0.2c0,0.1,0,0.4,0,0.8
		c-0.1,0.7-0.2,1.3-0.3,1.9c-0.1,0.6-0.2,1.3-0.3,2s-0.1,1.5-0.3,2.2c-0.1,0.7-0.3,1.8-0.4,3.2c-0.1,1.4-0.2,2.4-0.1,3.1V23l0.5-0.3
		c0.3-0.2,0.6-0.3,0.7-0.3c0.2,0.1,1.4-0.5,3.4-1.7c0.6-0.4,0.9-0.7,1-0.9c0-0.1,0-0.2,0-0.2s-0.1,0-0.3,0c-0.2,0.1-0.4,0.1-0.6,0.2
		c-0.3,0.1-0.2-0.1,0.2-0.4l0.4-0.3L40,18.7l-0.5-0.4l-0.7,0.3c-0.4,0.2-0.8,0.3-1,0.2c-0.3,0-0.5-0.2-0.8-0.6
		c-0.6-0.6-0.7-1.1-0.4-1.4c0.1-0.1,0.4-0.2,0.7,0c0.2,0.1,0.6,0,0.9-0.1c0.4-0.2,1.3-0.6,2.8-1.4c1-0.6,1.6-0.9,1.8-1.1
		c0.2-0.2,0.3-0.4,0.3-0.7v-0.4L42,13.7c-0.6,0.3-1,0.5-1.2,0.6c-0.3,0.1-0.4,0-0.4-0.1s0.2-0.3,0.6-0.6c0.6-0.4,0.8-0.7,0.5-0.7
		c-0.1,0-0.4,0.1-1.1,0.4c-0.6,0.2-1,0.3-1.4,0.3s-0.6,0-0.7-0.2c-0.2-0.5,0.1-0.9,1-1.2c0.5-0.2,1.2-0.7,2-1.3s1.2-1,1.2-1.2
		c0-0.1-0.5-0.1-1.5-0.1c-1.2,0-2.3-0.1-3.1-0.4c-0.3-0.1-0.4-0.2-0.1-0.4c0.1-0.1,0.2-0.1,0.3-0.2c0.8-0.2,2.4-1,4.8-2.4
		c0.7-0.4,1.4-1,2.2-1.9s1.4-1.7,1.8-2.6c0.2-0.4,0.3-0.6,0.3-0.7s0-0.3-0.1-0.4C47.1,0.4,47,0.2,47.1,0.2z M32,19.4
		c0.2-0.5,0.2-0.7,0.2-0.7c-0.2,0-0.3,0-0.3,0.1s-0.3,0.1-0.7,0.1c-0.3,0-0.4,0.1-0.5,0.1s-0.1,0.2-0.1,0.3c0,0.2,0,0.6,0,1.1
		l0.1,0.8l0.5-0.6C31.5,20.3,31.8,19.8,32,19.4z M38.8,4.8l-0.1-0.7l0.8,0.1c0.5,0.1,0.8,0.1,0.9,0.1c0,0,0.1,0.2,0.2,0.6
		c0,0.4,0.2,0.7,0.4,1.1c0.2,0.3,0.3,0.5,0.3,0.6S41.2,6.8,41.1,7c-0.2,0.2-0.4,0.3-0.5,0.3s-0.4-0.2-0.7-0.4
		C39.2,6.3,38.9,5.6,38.8,4.8z M40.3,23.6c0,0,0-0.1,0-0.2s0-0.1-0.1-0.1c0,0,0,0.1,0,0.2S40.3,23.6,40.3,23.6z M44.6,16.4
		c-0.1-0.2-0.3-0.2-0.8-0.2s-1,0.3-1.5,0.6l-0.7,0.4l0.9,0.1c1,0.1,1.4,0.3,1.4,0.6c0,0.1,0,0.1,0,0.2c-0.1,0.1-0.4,0.2-1,0.4
		c-0.7,0.2-1.1,0.4-1.1,0.7c0,0.1,0,0.1,0.1,0.2s0.2,0.2,0.3,0.2s0.3-0.1,0.6-0.2c0.6-0.2,1-0.4,1.2-0.6c0.3-0.2,0.4-0.4,0.5-0.7
		C44.7,17.3,44.7,16.8,44.6,16.4z M41.8,22.8c0.1,0,0.3-0.1,0.4-0.2c0.1-0.1,0.1-0.2,0-0.2s-0.3,0.1-0.4,0.2
		C41.6,22.8,41.6,22.8,41.8,22.8z M43.8,20.4c0-0.1-0.1-0.2-0.2-0.2c-0.1,0-0.3,0.1-0.6,0.2c-0.2,0.1-0.4,0.2-0.6,0.3
		c-0.2,0.1-0.4,0.3-0.5,0.4s-0.1,0.2-0.1,0.3c0,0,0.3,0,0.8-0.2s0.8-0.3,0.9-0.4C43.8,20.7,43.8,20.5,43.8,20.4z M42.8,25.5
		c0.1-0.3,0.1-0.4,0-0.4s-0.2,0.2-0.4,0.4c-0.2,0.4-0.3,0.5-0.3,0.6c0,0,0.2,0,0.4-0.2C42.7,25.8,42.8,25.6,42.8,25.5z M43.1,23.1
		c0-0.1-0.1-0.1-0.2-0.1c0,0-0.2,0.1-0.3,0.2c-0.2,0.1-0.4,0.2-0.4,0.3l0,0c0.1,0,0.2-0.1,0.4-0.2C43,23.3,43.1,23.1,43.1,23.1z
		 M45.8,12.2c-0.1-0.3-0.3-0.4-0.5-0.4s-0.4,0.1-0.5,0.4c-0.1,0.1-0.1,0.3-0.2,0.4c0,0.2-0.1,0.3,0,0.4c0,0.1,0.1,0.2,0.1,0.2
		c0.1,0,0.3-0.1,0.6-0.2c0.3-0.1,0.5-0.2,0.5-0.3C46,12.7,46,12.5,45.8,12.2z M48.3,16c0-0.1,0.1-0.2,0.4-0.3
		c0.3-0.1,0.5-0.1,0.5-0.1s0.4,0.2,1.2,0.5c1.3,0.6,2,1.1,1.9,1.5c0,0.2-0.3,0.3-0.7,0.2c-0.4,0-0.7-0.1-1-0.3
		c-0.2-0.2-0.7-0.5-1.4-0.9C48.6,16.3,48.3,16.1,48.3,16z"/>
</g>
</svg>
