<?xml version="1.0" encoding="utf-8"?>
<!-- Generator: Adobe Illustrator 23.0.3, SVG Export Plug-In . SVG Version: 6.00 Build 0)  -->
<svg version="1.1" id="图层_1" xmlns="http://www.w3.org/2000/svg" xmlns:xlink="http://www.w3.org/1999/xlink" x="0px" y="0px"
	 viewBox="0 0 800 800" style="enable-background:new 0 0 800 800;" xml:space="preserve">
<style type="text/css">
	.st0{fill-rule:evenodd;clip-rule:evenodd;fill:#FFFFFF;}
	.st1{fill-rule:evenodd;clip-rule:evenodd;}
	.st2{fill:#FFFFFF;}
	.st3{fill:#FFF100;}
	.st4{fill:none;stroke:#000000;stroke-width:20;stroke-linecap:round;}
</style>
<g id="矩形_1">
	<polygon class="st0" points="104.1,741.2 16.3,413.5 787.5,413.5 787.5,741.2 	"/>
	<path d="M775,426v302.7H113.7L32.6,426H775 M800,401H0l94.5,352.7H800V401L800,401z"/>
</g>
<g id="圆角矩形_2">
	<path class="st0" d="M107,741.2V60.8h593c48.2,0,87.5,39.3,87.5,87.5v593L107,741.2L107,741.2z"/>
	<path d="M700,73.3c41.4,0,75,33.6,75,75v580.5H119.5V73.3H700 M700,48.3H94.5v705.5H800V148.3C800,93,755.2,48.3,700,48.3L700,48.3
		z"/>
</g>
<path id="圆角矩形_3" d="M271.5,402.5h380c5.5,0,10,4.5,10,10l0,0c0,5.5-4.5,10-10,10h-380c-5.5,0-10-4.5-10-10l0,0
	C261.5,407,266,402.5,271.5,402.5z"/>
<path id="圆角矩形_3-2" d="M271.8,465.4L271.8,465.4c5.5,0,10,4.5,10,10v180c0,5.5-4.5,10-10,10l0,0c-5.5,0-10-4.5-10-10v-180
	C261.8,469.9,266.3,465.4,271.8,465.4z"/>
<path id="圆角矩形_3-3" class="st1" d="M430,569.2c1.9-5.2,7.6-7.9,12.8-6l0,0l216.1,78.7c5.2,1.9,7.9,7.6,6,12.8
	s-7.6,7.9-12.8,6L436,582C430.8,580.1,428.1,574.4,430,569.2z"/>
<path id="圆角矩形_3-4" class="st1" d="M549.6,562.9c2.8,4.8,1.1,10.9-3.7,13.7l-69.3,40c-4.8,2.8-10.9,1.2-13.7-3.6
	s-1.2-10.9,3.6-13.7c0,0,0.1,0,0.1-0.1l69.3-40C540.7,556.5,546.8,558.1,549.6,562.9z"/>
<path id="圆角矩形_3-5" d="M345.9,508.4H602c5.2,0,9.4,4.2,9.4,9.4v1.1c0,5.2-4.2,9.4-9.4,9.4H345.9c-5.2,0-9.4-4.2-9.4-9.4
	v-1.1C336.4,512.7,340.6,508.4,345.9,508.4z"/>
<path id="圆角矩形_3-6" d="M346.4,464.6h255c5.5,0,10,4.5,10,10l0,0c0,5.5-4.5,10-10,10h-255c-5.5,0-10-4.5-10-10l0,0
	C336.4,469.1,340.9,464.6,346.4,464.6z"/>
<g id="圆角矩形_4">
	<path class="st2" d="M281.5,350.6c-5.5,0-10-4.5-10-10v-185c0-5.5,4.5-10,10-10h310c5.5,0,10,4.5,10,10v185c0,5.5-4.5,10-10,10
		H281.5z"/>
	<path d="M591.5,155.6v185h-310v-185H591.5 M591.5,135.6h-310c-11,0-20,9-20,20v185c0,11,9,20,20,20h310c11,0,20-9,20-20v-185
		C611.5,144.6,602.5,135.6,591.5,135.6L591.5,135.6z"/>
</g>
<g id="椭圆_1">
	<circle class="st3" cx="443.1" cy="247.8" r="60.5"/>
	<path d="M443.1,197.3c27.9,0,50.5,22.7,50.5,50.5s-22.7,50.5-50.5,50.5s-50.5-22.7-50.5-50.5S415.3,197.3,443.1,197.3 M443.1,177.3
		c-39,0-70.5,31.6-70.5,70.5s31.6,70.5,70.5,70.5s70.5-31.6,70.5-70.5S482.1,177.3,443.1,177.3L443.1,177.3z"/>
</g>
<path id="圆角矩形_5" class="st4" d="M511,655H364.6c-9.7,0-17.6-6.7-17.6-15v-60c0-8.3,7.9-15,17.6-15H395"/>
</svg>
