<?xml version="1.0" encoding="utf-8"?>
<!-- Generator: Adobe Illustrator 23.0.3, SVG Export Plug-In . SVG Version: 6.00 Build 0)  -->
<svg version="1.1" id="组_1" xmlns="http://www.w3.org/2000/svg" xmlns:xlink="http://www.w3.org/1999/xlink" x="0px" y="0px"
	 viewBox="0 0 1000 1000" style="enable-background:new 0 0 1000 1000;" xml:space="preserve">
<style type="text/css">
	.st0{fill:#FFF100;}
	.st1{fill-rule:evenodd;clip-rule:evenodd;}
	.st2{fill-rule:evenodd;clip-rule:evenodd;fill:#FF0000;}
	.st3{fill-rule:evenodd;clip-rule:evenodd;fill:#1B42C5;}
	.st4{fill-rule:evenodd;clip-rule:evenodd;fill:#FFFFFF;}
</style>
<circle id="椭圆_2" class="st0" cx="500.9" cy="312.5" r="312.5"/>
<path id="形状_10" class="st1" d="M127.8,436.9c67-2.8,122,5.7,185.1,28.4c59.8,21.5,114.7,54.7,161.5,97.7
	c-58.8-25.2-121.3-40.8-185.1-46.2c-48.6-4.1-97.5-2.3-145.7,5.3L127.8,436.9z"/>
<path id="形状_10-2" class="st1" d="M210.5,879.2c38.5-1.9,77,2.3,114.2,12.4c61.9,16.9,117.8,50.7,161.4,97.7
	C428.8,960,365.5,944.2,301,943.2c-27.7-0.4-49.5,3.8-76.8,8.9L210.5,879.2z"/>
<path id="形状_8" class="st2" d="M1.8,444c35.4,181.8,70.9,363.5,106.3,545.3c15.2-12.5,32.5-22.1,51.2-28.4
	c20.9-7.1,42.9-10.1,65-8.9l-96.5-515.1C86.4,423,41.3,425.5,1.8,444z"/>
<path id="形状_9" class="st3" d="M1000,442.3C965.2,624,930.4,805.8,895.6,987.6c-125.9-61.1-273.9-56.5-395.7,12.4
	c-18.4-143.9-18.4-289.5,0-433.4c63.8-49.8,136.7-86.6,214.6-108.3C807.4,432.2,904.8,426.8,1000,442.3z"/>
<path id="形状_9-2" class="st4" d="M868.1,522.2c-25.6,118.4-51.2,236.8-76.8,355.2c-36.9-8.2-74.9-9.4-112.2-3.6
	c-43.1,6.7-84.2,23.1-120.1,48c-4.8-54.7-7.4-108.5-7.9-163.3c-0.5-50.1,0.8-99.2,3.9-149.3c37.9-32.8,82.1-57.6,129.9-72.8
	C744.1,517.6,806.8,512.7,868.1,522.2z"/>
<path class="st4" d="M499.9,566.6c-18.6,150.2-18.6,299.8,0,433.4c-102-83-198.2-123-289.4-120.8l-66.9-357
	C232.2,504.1,395,519,499.9,566.6z"/>
<path id="形状_11" class="st2" d="M461.8,520.4C339.2,402.9,165.1,356,0,396.1l17.8-60.4c74.9-16.5,152.9-12.2,225.6,12.4
	C333.6,379,410.1,440.1,461.8,520.4z"/>
<path id="形状_11-2" class="st2" d="M467.1,499.1c-2.6,2.1-81.8-136-239.8-186.5C165.4,292.8,100,288.8,32,298.4l35.5-62.2
	C126,242,183,257.6,236.2,282.4C396.8,357.9,469.8,497.1,467.1,499.1z"/>
<path id="形状_11-3" class="st2" d="M486.7,497.3c-2.8,1.4-50.3-131.7-182.9-214.9c-62.5-39.2-133.5-61.6-211.4-69.3l35.5-42.6
	c65.4,15.3,127,43.7,181.2,83.5C445,354.1,489.5,495.9,486.7,497.3z"/>
<path id="形状_11-4" class="st2" d="M538.2,520.4C660.8,402.9,834.9,356,1000,396.1l-30.2-104.8C801.7,309,647,391.1,538.2,520.4z
	"/>
<path id="形状_11-5" class="st2" d="M527.5,492c2.4,2.1,84.6-115.7,239.8-186.5c56.4-25.6,116.3-42.9,177.6-51.5l-44.4-62.2
	c-56.1,24.3-109.6,54-159.9,88.8C598.7,379.1,525.2,489.9,527.5,492z"/>
</svg>
